<?xml version="1.0" encoding="UTF-8"?><svg id="Capa_2" xmlns="http://www.w3.org/2000/svg" viewBox="0 0 740.7 248"><defs><style>.cls-1{fill:#f1f1f1;}</style></defs><g id="Capa_2-2"><path class="cls-1" d="M214.49,204.12c-.56-3.76-3.79-6.69-7.58-6.92-2.2-.14-4.2,.58-5.74,1.86-.02,.02-.05,.04-.07,.06-.34,.35-.69,.71-1.04,1.05-.01,.02-.03,.03-.04,.05-3.91,3.88-8.12,7.46-12.6,10.7l-35.7-98.91,30.69-79.37c6.18,3.99,11.93,8.58,17.16,13.71,.11,.11,.22,.22,.34,.33,1.39,1.26,3.23,2.03,5.26,2.03,4.33,0,7.84-3.51,7.84-7.83,0-1.99-.75-3.81-1.98-5.2-.02-.02-.04-.05-.06-.07-.25-.24-.51-.49-.77-.74-.02-.01-.03-.03-.04-.04C187.85,13.27,157.48,0,124,0S62.91,12.09,40.93,31.94l-3.2-8.87-.33-.91c-1.09-2.45-3.54-4.16-6.4-4.16-3.87,0-7,3.13-7,7,0,.66,.1,1.36,.28,1.97l.27,.76,.02,.04,5.5,15.28C11.33,64.77,0,93.06,0,124s10.95,58.27,29.12,79.84l-5.52,14.33-.27,.69-.02,.09c-.19,.6-.29,1.23-.31,1.89-.09,3.87,2.98,7.07,6.84,7.16,2.85,.07,5.34-1.58,6.48-4.01,.02-.02,.03-.04,.03-.06v-.03l.33-.83,.02-.05,3.1-8c22.11,20.47,51.7,32.98,84.2,32.98,34.34,0,65.42-13.96,87.88-36.52,.01,0,.02,0,.02-.02l.56-.56s.07-.07,.1-.11c1.51-1.73,2.32-4.11,1.93-6.67ZM124.33,15.27c16.38,0,31.9,3.65,45.81,10.18l-25.48,65.88L117.29,15.5c2.33-.15,4.67-.23,7.04-.23Zm-23.28,2.53l-33.46,86.84-20.52-56.83c14.43-14.78,33.07-25.43,53.98-30.01ZM36.29,185.85c-12.56-17.66-19.96-39.26-19.96-62.58s7.53-45.32,20.32-63.06l23.2,64.51-23.56,61.13Zm56.11,40.61c-17.65-5.44-33.36-15.3-45.85-28.27l20.58-53.23,27.37,76.09-2.1,5.41Zm-17.5-101.58l5.45-14.09c1.27,2.26,3.74,3.79,6.57,3.79h31.85c4.15,0,7.52-3.3,7.52-7.36s-3.37-7.37-7.52-7.37c-.09,0-.19,0-.28,.01h-31.57c-.88-.01-1.73,.14-2.51,.42l24.99-64.63,27.42,75.96-8.52,22.02c-.98-.47-2.08-.73-3.24-.73-.09,0-.19,0-.28,.01h-31.57c-4.16-.01-7.52,3.29-7.52,7.36s3.36,7.36,7.52,7.36h29.68l-20.58,53.21-27.41-75.96Zm49.43,106.39c-3.8,0-7.55-.2-11.24-.58l-3.39-9.39,34.5-89.24,31.19,86.39c-15.21,8.18-32.59,12.82-51.06,12.82Z"/><g><path class="cls-1" d="M366,33.22c-11.1-10.05-21.45-11.1-27.15-11.1-21.75,0-36.45,16.05-36.45,38.1s15.3,37.5,36.6,37.5c12,0,21.3-6.15,27-11.55v18.15c-10.05,6-20.55,7.5-27.45,7.5-18.15,0-29.55-8.25-35.4-13.8-11.7-10.95-16.05-23.7-16.05-37.8,0-18.45,7.65-31.2,16.05-39.15,10.35-9.75,22.35-13.05,36.15-13.05,9.15,0,18,1.65,26.7,7.2v18Z"/><path class="cls-1" d="M472.2,85.72h-42.75l-10.95,24.15h-16.5L451.8,3.97l47.4,105.9h-16.5l-10.5-24.15Zm-6.15-14.4l-14.85-33.9-15.45,33.9h30.3Z"/><path class="cls-1" d="M600.6,85.72h-42.75l-10.95,24.15h-16.5L580.2,3.97l47.4,105.9h-16.5l-10.5-24.15Zm-6.15-14.4l-14.85-33.9-15.45,33.9h30.3Z"/><path class="cls-1" d="M668.4,9.82l27.9,69.75,27.9-69.75h16.5l-44.4,106.5-44.4-106.5h16.5Z"/></g><g><path class="cls-1" d="M295.71,143.51v32.02h-2.11v-32.02h2.11Z"/><path class="cls-1" d="M313.95,175.53v-32.35l26.88,28.13v-27.79h2.11v32.83l-26.88-28.13v27.31h-2.11Z"/><path class="cls-1" d="M367.95,145.43v30.1h-2.11v-30.1h-8.3v-1.92h18.72v1.92h-8.3Z"/><path class="cls-1" d="M406.21,145.43h-13.25v11.62h12.96v1.92h-12.96v14.64h13.25v1.92h-15.36v-32.02h15.36v1.92Z"/><path class="cls-1" d="M436.16,175.53l-10.37-15.12h-.96v15.12h-2.11v-32.02h4.61c2.45,0,4.66,.19,6.77,1.63,2.5,1.73,3.31,4.37,3.31,6.86,0,3.17-1.39,6.43-5.38,7.78-1.68,.58-3.22,.62-3.94,.62l10.46,15.12h-2.4Zm-11.33-17.04h3.07c4.56,0,7.3-2.4,7.3-6.53,0-3.22-1.58-4.9-2.83-5.57-1.34-.77-3.65-.96-4.9-.96h-2.64v13.06Z"/><path class="cls-1" d="M454.78,175.53v-32.35l26.88,28.13v-27.79h2.11v32.83l-26.88-28.13v27.31h-2.11Z"/><path class="cls-1" d="M518.57,165.01h-13.63l-4.27,10.51h-2.3l13.49-32.98,13.3,32.98h-2.3l-4.27-10.51Zm-.77-1.92l-6-15.17-6.1,15.17h12.1Z"/><path class="cls-1" d="M544.01,145.43v30.1h-2.11v-30.1h-8.3v-1.92h18.72v1.92h-8.3Z"/><path class="cls-1" d="M569.02,143.51v32.02h-2.11v-32.02h2.11Z"/><path class="cls-1" d="M618.75,159.59c0,9.22-7.25,16.47-16.61,16.47s-16.61-7.25-16.61-16.47,7.25-16.51,16.61-16.51,16.61,7.3,16.61,16.51Zm-2.21,0c0-8.21-6.14-14.59-14.4-14.59s-14.4,6.38-14.4,14.59,6.14,14.54,14.4,14.54,14.4-6.38,14.4-14.54Z"/><path class="cls-1" d="M635.26,175.53v-32.35l26.88,28.13v-27.79h2.11v32.83l-26.88-28.13v27.31h-2.11Z"/><path class="cls-1" d="M699.05,165.01h-13.63l-4.27,10.51h-2.3l13.49-32.98,13.3,32.98h-2.3l-4.27-10.51Zm-.77-1.92l-6-15.17-6.1,15.17h12.1Z"/><path class="cls-1" d="M722.33,143.51v30.1h8.93v1.92h-11.04v-32.02h2.11Z"/><path class="cls-1" d="M370.83,206.53c-1.97-3.84-5.42-3.94-6.29-3.94-3.79,0-5.95,2.74-5.95,5.95,0,3.46,2.4,4.61,5.62,6.19,3.17,1.54,4.75,2.21,6.38,3.36,1.39,.96,3.41,2.64,3.41,6.19,0,5.38-4.51,9.36-9.99,9.36-4.13,0-6.24-1.97-7.44-3.36-1.25-1.44-1.78-2.69-2.06-3.5l1.82-.86c.43,1.25,1.25,2.5,1.73,3.07,1.44,1.82,3.79,2.74,6,2.74,4.32,0,7.73-3.17,7.73-7.39,0-1.73-.67-3.55-3.12-5.04-.91-.53-2.78-1.49-5.42-2.78-3.17-1.54-4.75-2.4-5.86-4.22-.72-1.2-1.01-2.4-1.01-3.65,0-3.7,2.5-7.97,8.21-7.97,3.22,0,6.14,1.54,7.78,4.56l-1.54,1.3Z"/><path class="cls-1" d="M421.52,217.19c0,9.22-7.25,16.47-16.61,16.47s-16.61-7.25-16.61-16.47,7.25-16.51,16.61-16.51,16.61,7.3,16.61,16.51Zm-2.21,0c0-8.21-6.14-14.59-14.4-14.59s-14.4,6.38-14.4,14.59,6.14,14.54,14.4,14.54,14.4-6.38,14.4-14.54Z"/><path class="cls-1" d="M440.14,201.11v30.1h8.93v1.92h-11.04v-32.02h2.11Z"/><path class="cls-1" d="M465.77,201.11v20.02c0,3.02,.14,4.99,1.34,6.91,1.87,3.02,5.38,3.7,7.44,3.7s5.57-.67,7.44-3.7c1.2-1.92,1.34-3.89,1.34-6.91v-20.02h2.11v20.02c0,3.5-.19,5.81-1.82,8.21-2.4,3.5-6.19,4.32-9.07,4.32s-6.67-.82-9.07-4.32c-1.63-2.4-1.82-4.71-1.82-8.21v-20.02h2.11Z"/><path class="cls-1" d="M510.46,203.03v30.1h-2.11v-30.1h-8.3v-1.92h18.72v1.92h-8.3Z"/><path class="cls-1" d="M535.47,201.11v32.02h-2.11v-32.02h2.11Z"/><path class="cls-1" d="M585.2,217.19c0,9.22-7.25,16.47-16.61,16.47s-16.61-7.25-16.61-16.47,7.25-16.51,16.61-16.51,16.61,7.3,16.61,16.51Zm-2.21,0c0-8.21-6.14-14.59-14.4-14.59s-14.4,6.38-14.4,14.59,6.14,14.54,14.4,14.54,14.4-6.38,14.4-14.54Z"/><path class="cls-1" d="M601.71,233.13v-32.35l26.88,28.13v-27.79h2.11v32.83l-26.88-28.13v27.31h-2.11Z"/><path class="cls-1" d="M663.53,206.53c-1.97-3.84-5.42-3.94-6.29-3.94-3.79,0-5.95,2.74-5.95,5.95,0,3.46,2.4,4.61,5.62,6.19,3.17,1.54,4.75,2.21,6.38,3.36,1.39,.96,3.41,2.64,3.41,6.19,0,5.38-4.51,9.36-9.99,9.36-4.13,0-6.24-1.97-7.44-3.36-1.25-1.44-1.78-2.69-2.06-3.5l1.82-.86c.43,1.25,1.25,2.5,1.73,3.07,1.44,1.82,3.79,2.74,6,2.74,4.32,0,7.73-3.17,7.73-7.39,0-1.73-.67-3.55-3.12-5.04-.91-.53-2.79-1.49-5.42-2.78-3.17-1.54-4.75-2.4-5.86-4.22-.72-1.2-1.01-2.4-1.01-3.65,0-3.7,2.5-7.97,8.21-7.97,3.22,0,6.14,1.54,7.78,4.56l-1.54,1.3Z"/></g></g></svg>